<?xml version="1.0" encoding="iso-8859-1"?>
<!-- Generator: Adobe Illustrator 16.0.0, SVG Export Plug-In . SVG Version: 6.00 Build 0)  -->
<!DOCTYPE svg PUBLIC "-//W3C//DTD SVG 1.1//EN" "http://www.w3.org/Graphics/SVG/1.1/DTD/svg11.dtd">
<svg xmlns="http://www.w3.org/2000/svg" xmlns:xlink="http://www.w3.org/1999/xlink" version="1.1" id="Capa_1" x="0px" y="0px" width="512px" height="512px" viewBox="0 0 45.123 45.124" style="enable-background:new 0 0 45.123 45.124;" xml:space="preserve">
<g>
	<path d="M44.581,24.729c-1.227-3.241-4.378-5.418-7.842-5.418c-0.317,0-0.632,0.023-0.944,0.059   c1.377-3.783,0.563-8.182-2.472-11.217c-4.166-4.166-10.916-4.176-15.096-0.03C14.048,3.977,7.3,3.988,3.132,8.154   c-4.176,4.177-4.176,10.949,0,15.125c0.204,0.204,10.115,10.067,13.765,13.7c0.736,0.732,1.926,0.732,2.662,0   c0.815-0.812,1.951-1.942,3.214-3.199c0.009,0.021,0.018,0.043,0.025,0.065l1.717,4.507c0.396,1.046,1.416,1.749,2.535,1.749   c0.328,0,0.647-0.058,0.955-0.173l1.93-0.726c3.752-1.407,9.632-3.615,9.771-3.669C44.029,33.899,46.215,29.052,44.581,24.729z    M38.643,32.73c-0.159,0.062-6.021,2.261-9.762,3.666l-1.664,0.625l-1.615-4.242c-1.289-3.383-2.688-7.057-2.729-7.164   c-1.049-2.775,0.355-5.889,3.13-6.938c0.614-0.232,1.254-0.35,1.902-0.35c2.214,0,4.234,1.391,5.027,3.46l0.531,1.39l1.395-0.521   c0.607-0.228,1.24-0.343,1.883-0.343c2.225,0,4.248,1.398,5.035,3.479C42.824,28.566,41.42,31.678,38.643,32.73z" fill="#FFFFFF"/>
</g>
<g>
</g>
<g>
</g>
<g>
</g>
<g>
</g>
<g>
</g>
<g>
</g>
<g>
</g>
<g>
</g>
<g>
</g>
<g>
</g>
<g>
</g>
<g>
</g>
<g>
</g>
<g>
</g>
<g>
</g>
</svg>
