<?xml version="1.0" encoding="iso-8859-1"?>
<!-- Generator: Adobe Illustrator 18.0.0, SVG Export Plug-In . SVG Version: 6.00 Build 0)  -->
<!DOCTYPE svg PUBLIC "-//W3C//DTD SVG 1.1//EN" "http://www.w3.org/Graphics/SVG/1.1/DTD/svg11.dtd">
<svg xmlns="http://www.w3.org/2000/svg" xmlns:xlink="http://www.w3.org/1999/xlink" version="1.1" id="Capa_1" x="0px" y="0px" viewBox="0 0 297 297" style="enable-background:new 0 0 297 297;" xml:space="preserve" width="512px" height="512px">
<g>
	<path d="M82.5,237.496c-2.63,0-5.21,1.069-7.07,2.93c-1.86,1.86-2.93,4.43-2.93,7.07c0,2.64,1.069,5.21,2.93,7.069   c1.86,1.86,4.44,2.931,7.07,2.931c2.63,0,5.209-1.07,7.068-2.931c1.87-1.859,2.931-4.439,2.931-7.069c0-2.63-1.061-5.21-2.931-7.07   C87.709,238.565,85.13,237.496,82.5,237.496z" fill="#FFFFFF"/>
	<path d="M148.497,237.496c-2.63,0-5.21,1.069-7.07,2.93c-1.86,1.86-2.93,4.44-2.93,7.07c0,2.63,1.069,5.21,2.93,7.069   c1.86,1.86,4.44,2.931,7.07,2.931c2.63,0,5.21-1.07,7.069-2.931c1.87-1.859,2.931-4.439,2.931-7.069c0-2.63-1.061-5.21-2.931-7.07   C153.707,238.565,151.127,237.496,148.497,237.496z" fill="#FFFFFF"/>
	<path d="M214.494,237.496c-2.63,0-5.209,1.069-7.069,2.93c-1.86,1.86-2.93,4.44-2.93,7.07c0,2.63,1.069,5.21,2.93,7.069   c1.86,1.86,4.439,2.931,7.069,2.931c2.63,0,5.21-1.07,7.069-2.931c1.87-1.859,2.931-4.439,2.931-7.069   c0-2.63-1.061-5.21-2.931-7.07C219.704,238.565,217.124,237.496,214.494,237.496z" fill="#FFFFFF"/>
	<path d="M287,270.495h-21.255v-89.496c0-14.337-11.662-25.999-25.999-25.999h-64.747V82.503c0-5.522-4.478-10-10-10h-3.363   c7.976-4.573,13.363-13.165,13.363-22.999c0-11.038-12.778-30.728-18.272-38.682c-1.866-2.703-4.942-4.316-8.227-4.316   c-3.285,0-6.361,1.613-8.228,4.316c-5.493,7.953-18.271,27.644-18.271,38.682c0,9.834,5.388,18.426,13.363,22.999h-3.363   c-5.523,0-10,4.478-10,10V155H57.254c-14.337,0-25.999,11.662-25.999,25.999v89.496H10c-5.523,0-10,4.478-10,10   c0,5.522,4.477,9.999,10,9.999h277c5.522,0,10-4.478,10-9.999C297,274.973,292.522,270.495,287,270.495z M148.502,35.273   c3.691,6.466,6.292,12.042,6.498,14.298c-0.037,3.553-2.939,6.433-6.5,6.433c-3.562,0-6.463-2.88-6.5-6.433   C142.205,47.321,144.808,41.745,148.502,35.273z M142,92.502h13V155h-13V92.502z M57.254,174.999h182.492c3.252,0,6,2.748,6,6   v28.444c-4.226-0.266-6.329-1.537-9.563-3.497c-4.49-2.722-10.64-6.448-21.683-6.448c-11.042,0-17.191,3.727-21.682,6.448   c-3.654,2.214-5.859,3.552-11.314,3.552c-5.456,0-7.662-1.338-11.317-3.552c-4.489-2.722-10.638-6.448-21.681-6.448   c-11.043,0-17.191,3.727-21.681,6.448c-3.655,2.214-5.861,3.552-11.317,3.552c-5.456,0-7.663-1.338-11.318-3.553   c-4.49-2.721-10.64-6.447-21.683-6.447c-11.044,0-17.193,3.727-21.683,6.447c-3.237,1.961-5.342,3.232-9.57,3.498v-28.444   C51.254,177.747,54.002,174.999,57.254,174.999z M51.254,229.46c9.952-0.369,15.688-3.837,19.935-6.411   c3.655-2.215,5.861-3.552,11.318-3.552c5.456,0,7.662,1.337,11.317,3.552c4.49,2.722,10.64,6.448,21.684,6.448   c11.044,0,17.193-3.727,21.683-6.448c3.654-2.215,5.86-3.552,11.316-3.552c5.455,0,7.661,1.337,11.315,3.552   c4.489,2.722,10.639,6.448,21.683,6.448c11.042,0,17.191-3.727,21.682-6.448c3.654-2.215,5.859-3.552,11.315-3.552   c5.456,0,7.661,1.337,11.315,3.552c4.246,2.573,9.982,6.042,19.931,6.411v41.035H51.254V229.46z" fill="#FFFFFF"/>
</g>
<g>
</g>
<g>
</g>
<g>
</g>
<g>
</g>
<g>
</g>
<g>
</g>
<g>
</g>
<g>
</g>
<g>
</g>
<g>
</g>
<g>
</g>
<g>
</g>
<g>
</g>
<g>
</g>
<g>
</g>
</svg>
