<?xml version="1.0" encoding="iso-8859-1"?>
<!-- Generator: Adobe Illustrator 16.0.0, SVG Export Plug-In . SVG Version: 6.00 Build 0)  -->
<!DOCTYPE svg PUBLIC "-//W3C//DTD SVG 1.1//EN" "http://www.w3.org/Graphics/SVG/1.1/DTD/svg11.dtd">
<svg xmlns="http://www.w3.org/2000/svg" xmlns:xlink="http://www.w3.org/1999/xlink" version="1.1" id="Capa_1" x="0px" y="0px" width="512px" height="512px" viewBox="0 0 45 45" style="enable-background:new 0 0 45 45;" xml:space="preserve">
<g>
	<g>
		<g>
			<path d="M10.622,20.157c-1.533,0-2.67-2.354-3.672-4.429c-1.024-2.122-1.991-4.125-3.62-4.125H1.087     c-0.537,0-0.883,0.187-1.027,0.553c-0.223,0.563,0.218,0.978,0.607,1.342c0.285,0.266,0.815,0.761,0.815,1.074v6.732     c0,1.625,1.314,2.95,2.937,2.968c0.548,2.958,3.153,5.188,6.203,5.188h17.836l-5.37-9.302L10.622,20.157L10.622,20.157z" fill="#FFFFFF"/>
			<path d="M44.066,14.932c-0.612,0-0.97,0.534-1.748,1.705c-0.877,1.316-2.345,3.521-3.653,3.521h-11.69l5.368,9.302h6.322     c3.492,0,6.335-2.842,6.335-6.334v-6.729C45,15.424,44.686,14.932,44.066,14.932z" fill="#FFFFFF"/>
			<path d="M33.081,31.641c-0.185-0.187-0.446-0.247-0.688-0.188L17.777,6.143c-0.2-0.348-0.645-0.467-0.991-0.266     c-0.347,0.2-0.466,0.644-0.266,0.991l14.614,25.313c-0.173,0.18-0.247,0.438-0.181,0.688l1.498,5.571     c0.057,0.209,0.203,0.382,0.399,0.472c0.068,0.031,0.699,0.309,1.496,0.31c0.545,0,1.039-0.127,1.472-0.376     c1.36-0.782,1.535-2.469,1.543-2.538c0.021-0.217-0.058-0.43-0.209-0.581L33.081,31.641z" fill="#FFFFFF"/>
		</g>
	</g>
</g>
<g>
</g>
<g>
</g>
<g>
</g>
<g>
</g>
<g>
</g>
<g>
</g>
<g>
</g>
<g>
</g>
<g>
</g>
<g>
</g>
<g>
</g>
<g>
</g>
<g>
</g>
<g>
</g>
<g>
</g>
</svg>
