<?xml version="1.0" encoding="utf-8"?>
<!-- Generator: Adobe Illustrator 22.0.1, SVG Export Plug-In . SVG Version: 6.00 Build 0)  -->
<svg version="1.1" id="Capa_1" xmlns="http://www.w3.org/2000/svg" xmlns:xlink="http://www.w3.org/1999/xlink" x="0px" y="0px"
	 viewBox="0 0 512 512" style="enable-background:new 0 0 512 512;" xml:space="preserve">
<style type="text/css">
	.st0{fill:#FFFFFF;}
</style>
<g>
	<path class="st0" d="M57.9,453c0,2.8,0.1,42.9,0.3,48.6c0.2,5.8,5,10.4,10.9,10.4h198.1c5.8,0,10.6-4.6,10.9-10.4
		c0.2-5.7,0.3-45.8,0.3-48.6c0-77.8-23.7-148.1-60.9-181.7c0,0,1.8-50.4,1.8-51.1c12.4,9.2,23.5,23.8,32.4,42.8
		c11.3,24.2,18.5,53.7,20.8,85.5c0.4,5.5,4.8,9.8,10.3,10.1c0.2,0,0.4,0,0.6,0c5.3,0,9.8-3.8,10.7-9l11.3-65l3.6,60.5
		c0.3,4.2,2.9,7.7,6.5,9.3l9.2,147.3c0.4,5.7,5.1,10.2,10.9,10.2h56.1c5.7,0,10.5-4.5,10.9-10.2l9.2-147.3c3.7-1.6,6.3-5.1,6.5-9.3
		l3.6-59.8l10.8,64.2c0.9,5.3,5.5,9.1,10.7,9.1c0.6,0,1.2-0.1,1.8-0.2c5.9-1,9.9-6.6,8.9-12.5l-24.5-145.7c-0.7-4.1-3.3-17.3-4-19.7
		c-2-6.9-5.8-13.5-11.2-19.2c-4.4-4.6-9.6-8.5-15.4-11.7c3.5-3,6.6-6.5,9.3-10.4c16.8-24.6,10.4-58.4-14.2-75.2
		c-11.9-8.1-26.3-11.1-40.5-8.5c-14.2,2.7-26.5,10.7-34.6,22.7c-8.1,11.9-11.1,26.3-8.5,40.5c2.3,12.1,8.5,22.9,17.8,30.8
		c-5.8,3.1-11,7-15.4,11.7c-5.6,5.9-9.5,12.8-11.4,20h0l0,0c-0.7,2.4-3.1,17.4-3.1,17.4l-15.1,86.3c-3.3-11.1-7.3-21.6-11.8-31.4
		c-12.7-27-29.6-46.8-49.2-57.5v-59.6c0-29.8-24.3-54.1-54.1-54.1S114,106.8,114,136.7v62.9c-17.3,11.6-31,30.7-38.3,54
		c-8.4,26.8-7.8,57.2,1.7,83.4C65,370.2,57.9,410.5,57.9,453z M383.2,462.4h-8.7v-107h15.4L383.2,462.4z M352.7,355.5v107H344
		l-6.7-107H352.7L352.7,355.5z M328.6,176.4c1.1-1.2,2.3-2.3,3.6-3.3c3.3,27,9.4,44.4,17.5,67.3c1,2.8,2,5.6,3,8.6v84.7h-22.7
		l-8.3-140.1C321.3,186,325.2,180,328.6,176.4z M374.1,164c-0.2,2.2-0.5,4.3-0.7,6.4h-19.6c-0.2-2.1-0.5-4.2-0.7-6.4
		c3.4-0.6,6.9-1,10.5-1C367.2,163,370.7,163.4,374.1,164z M369.7,192.2c-1.7,7.5-3.7,14.5-6.1,21.8c-2.4-7.4-4.4-14.3-6.1-21.8
		H369.7z M390.3,127.2c-10,14.7-30.2,18.5-44.9,8.5c-7.1-4.9-12-12.2-13.6-20.7c-1.6-8.5,0.2-17.1,5.1-24.2l0,0
		c4.9-7.1,12.2-12,20.7-13.6c2-0.4,4.1-0.6,6.1-0.6c6.4,0,12.7,1.9,18.2,5.6C396.5,92.3,400.4,112.4,390.3,127.2z M405.5,193.7
		l-8.3,140.1h-22.7V249c1-3,2.1-5.8,3-8.6c8.1-22.9,14.2-40.2,17.5-67.3c1.3,1,2.5,2.1,3.6,3.3C402,180,405.9,186,405.5,193.7z
		 M381.4,490.3h-7v-6.1h7.3L381.4,490.3z M345.8,490.3l-0.4-6.1h7.3v6.1H345.8z M117,225.1l1.7,46.3c-9.8,8.9-18.7,20.3-26.4,33.8
		c-1.7-15.1-0.3-30.7,4.2-45.1C100.9,246,108.1,233.9,117,225.1z M139.1,233.2h58l-1.2,33.7h-55.6L139.1,233.2z M200.4,136.7
		c0,17.8-14.5,32.3-32.3,32.3s-32.3-14.5-32.3-32.3c0-5.2,1.3-10.2,3.5-14.6h57.7C199.2,126.5,200.4,131.4,200.4,136.7z
		 M189.4,199.9c3.2,3.3,5.5,7.3,6.8,11.6H140c3.7-12,14.9-20.7,28.1-20.7C176.2,190.8,183.8,194,189.4,199.9z M256.6,453
		c0,0.9,0,2.4,0,4.3c-4,0.6-8.1,0-11.7-2.1c0,0,0,0,0,0c-12.2-6.8-26.8-6.8-39,0c0,0,0,0-0.1,0c-5.6,3.1-12.2,3.1-17.8,0
		c-12-6.7-27-6.7-39,0c-5.6,3.1-12.2,3.1-17.8,0c0,0-0.1,0-0.1-0.1c-12.2-6.7-26.7-6.7-38.8,0c0,0-0.1,0-0.1,0
		c-3.8,2.1-8.2,2.8-12.4,2c0-1.9,0-3.3,0-4.1c0-37.3,5.7-73.2,16.5-103.8c9.3-26.4,21.7-47.2,36-60.6h72
		c14.4,13.4,26.8,34.2,36,60.6C250.9,379.8,256.6,415.7,256.6,453z M256.4,490.3H79.8c0-3.3-0.1-7.2-0.1-11.1
		c1.1,0.1,2.3,0.2,3.4,0.2c6.7,0,13.3-1.7,19.4-5.1c0,0,0.1,0,0.1,0c5.6-3.1,12.2-3.1,17.8,0c0,0,0.1,0,0.1,0.1
		c12.2,6.8,26.7,6.7,38.9-0.1c5.5-3.1,12.3-3.1,17.8,0c12.2,6.8,26.8,6.8,39,0c0,0,0.1,0,0.1,0c5.6-3.1,12.2-3.1,17.8,0c0,0,0,0,0,0
		c7,3.9,14.7,5.5,22.3,5C256.5,483.1,256.4,486.9,256.4,490.3L256.4,490.3z"/>
	<path class="st0" d="M310,70.1c16-16,16-42.1,0-58.1c-13.7-13.7-34.6-15.7-50.4-6c-15.8-9.6-36.8-7.6-50.4,6c-16,16-16,42.1,0,58.1
		l42.7,42.7c2,2,4.8,3.2,7.7,3.2s5.6-1.1,7.7-3.2L310,70.1z M294.7,54.7l-35,35l-35-35c-7.5-7.5-7.5-19.8,0-27.3
		c7.5-7.5,19.8-7.5,27.3,0c4.2,4.2,11.1,4.2,15.4,0c3.8-3.8,8.7-5.7,13.7-5.7s9.9,1.9,13.7,5.7C302.2,34.9,302.2,47.2,294.7,54.7z"
		/>
</g>
</svg>
